<svg width="19" height="14" viewBox="0 0 19 14" fill="none" xmlns="http://www.w3.org/2000/svg">
<path d="M6.4566 0C9.37491 0 12.2932 0 15.3 0C15.3 1.35657 15.3 2.71314 15.3 4.11082C16.521 4.11082 17.742 4.11082 19 4.11082C19 5.16076 18.8818 6.13389 18.5801 7.13269C18.5724 7.15847 18.5646 7.18426 18.5566 7.21082C18.1945 8.39157 17.6021 9.48208 16.8365 10.4305C16.7988 10.4774 16.7616 10.5247 16.7245 10.5722C16.5576 10.7827 16.3756 10.9772 16.1905 11.1703C16.1547 11.2079 16.1547 11.2079 16.1182 11.2462C15.9584 11.4112 15.7909 11.5605 15.6149 11.7063C15.5879 11.7298 15.561 11.7535 15.5344 11.7774C15.1444 12.1243 14.7183 12.4158 14.2765 12.6864C14.2554 12.6994 14.2342 12.7123 14.2124 12.7257C13.6532 13.0651 13.0567 13.3276 12.4396 13.5303C12.4149 13.5386 12.3901 13.5468 12.3646 13.5553C11.4407 13.8592 10.4943 13.9993 9.52685 13.9999C9.50269 14 9.47854 14 9.45366 14C7.97633 13.9982 6.54777 13.6354 5.22325 12.9586C5.20214 12.9479 5.18102 12.9371 5.15927 12.926C4.4055 12.5372 3.70828 12.0211 3.09401 11.4251C3.04331 11.376 2.99245 11.3275 2.94066 11.2797C2.74408 11.0974 2.56405 10.9036 2.38918 10.699C2.37619 10.6839 2.3632 10.6688 2.34982 10.6532C1.00336 9.07807 0.196955 7.05551 0.0192531 4.96328C0.0162436 4.92826 0.0162436 4.92826 0.0131733 4.89253C-0.00562412 4.63124 0.00121214 4.37447 0.00121214 4.11082C1.23089 4.11082 2.46056 4.11082 3.72749 4.11082C3.75347 4.39831 3.77945 4.6858 3.80622 4.98199C3.95355 5.90361 4.25286 6.77576 4.77715 7.54105C4.79677 7.5699 4.81639 7.59874 4.8366 7.62846C5.15 8.07406 5.50989 8.48376 5.93177 8.82058C5.94593 8.83204 5.96008 8.8435 5.97466 8.85531C7.16568 9.81541 8.70263 10.2488 10.1993 10.0695C11.233 9.93186 12.2266 9.52361 13.0432 8.8478C13.079 8.81853 13.079 8.81853 13.1155 8.78867C13.3729 8.57442 13.6197 8.34971 13.8304 8.08553C13.8491 8.06377 13.8677 8.04201 13.8869 8.0196C14.8104 6.92018 15.2011 5.56931 15.2737 4.13805C12.3641 4.13805 9.45442 4.13805 6.4566 4.13805C6.4566 2.77249 6.4566 1.40694 6.4566 0Z" fill="#FBF9E1"/>
</svg>
