<svg width="65" height="20" viewBox="0 0 65 20" fill="none" xmlns="http://www.w3.org/2000/svg">
<g clip-path="url(#clip0_156_869)">
<mask id="mask0_156_869" style="mask-type:luminance" maskUnits="userSpaceOnUse" x="0" y="0" width="65" height="20">
<path d="M65 0H0V19.9883H65V0Z" fill="white"/>
</mask>
<g mask="url(#mask0_156_869)">
<path d="M40.3163 15.6154C36.5436 18.4487 31.0753 19.9603 26.367 19.9603C19.7655 19.9603 13.8223 17.4726 9.32611 13.335C8.97285 13.0097 9.28937 12.5663 9.71328 12.8196C14.5655 15.6961 20.5653 17.4265 26.7628 17.4265C30.9424 17.4265 35.5404 16.5455 39.7681 14.7171C40.4068 14.4407 40.9408 15.1432 40.3163 15.6154Z" fill="#FF9900"/>
<path d="M41.8845 13.787C41.404 13.1594 38.6966 13.4904 37.4815 13.6373C37.1113 13.6834 37.0547 13.3551 37.3882 13.119C39.5445 11.5729 43.0827 12.0192 43.4953 12.5374C43.9078 13.0586 43.3879 16.672 41.3616 18.3968C41.0508 18.6617 40.754 18.5206 40.8924 18.1694C41.3474 17.0119 42.3677 14.4176 41.8845 13.787Z" fill="#FF9900"/>
<path d="M37.5653 2.20374V0.700745C37.5653 0.47328 37.7349 0.320679 37.9384 0.320679H44.5428C44.7548 0.320679 44.9243 0.476159 44.9243 0.700745V1.98779C44.9215 2.20374 44.7435 2.48591 44.4269 2.93219L41.0046 7.9105C42.2764 7.87883 43.6187 8.07174 44.7717 8.73398C45.0317 8.8837 45.1023 9.10252 45.1222 9.31847V10.9222C45.1222 11.1411 44.8848 11.3973 44.6361 11.2649C42.6041 10.1794 39.9053 10.0613 37.6586 11.2764C37.4297 11.4031 37.1895 11.1497 37.1895 10.9309V9.40773C37.1895 9.163 37.1923 8.74549 37.4326 8.37407L41.3974 2.58092H37.9468C37.7349 2.58092 37.5653 2.42832 37.5653 2.20374Z" fill="#221F1F"/>
<path d="M13.4737 11.5815H11.4644C11.2722 11.5671 11.1196 11.4203 11.1055 11.2331V0.72658C11.1055 0.516392 11.2778 0.349391 11.4926 0.349391H13.3663C13.5613 0.358024 13.7167 0.510632 13.7309 0.700665V2.07409H13.7676C14.2564 0.746734 15.1749 0.127686 16.4128 0.127686C17.6704 0.127686 18.456 0.746734 19.0212 2.07409C19.5073 0.746734 20.6123 0.127686 21.7963 0.127686C22.6385 0.127686 23.5598 0.481839 24.1221 1.27652C24.758 2.16046 24.628 3.44463 24.628 4.57043L24.6252 11.2015C24.6252 11.4116 24.4527 11.5815 24.238 11.5815H22.2316C22.0308 11.5671 21.8698 11.403 21.8698 11.2015V5.6329C21.8698 5.18948 21.9094 4.08384 21.8133 3.66345C21.6635 2.95804 21.2142 2.75936 20.632 2.75936C20.146 2.75936 19.6373 3.09047 19.431 3.62028C19.2247 4.15006 19.2444 5.03689 19.2444 5.6329V11.2015C19.2444 11.4116 19.072 11.5815 18.8573 11.5815H16.8507C16.6473 11.5671 16.4891 11.403 16.4891 11.2015L16.4862 5.6329C16.4862 4.46103 16.6756 2.73633 15.2485 2.73633C13.8043 2.73633 13.8609 4.41784 13.8609 5.6329V11.2015C13.8609 11.4116 13.6885 11.5815 13.4737 11.5815Z" fill="#221F1F"/>
<path d="M50.6115 0.127686C53.5929 0.127686 55.2066 2.73633 55.2066 6.05327C55.2066 9.25793 53.4234 11.8003 50.6115 11.8003C47.6838 11.8003 46.0898 9.19171 46.0898 5.94098C46.0898 2.6701 47.7035 0.127686 50.6115 0.127686ZM50.6285 2.27277C49.1476 2.27277 49.0544 4.32858 49.0544 5.60987C49.0544 6.89402 49.0346 9.63511 50.6115 9.63511C52.1686 9.63511 52.2421 7.42383 52.2421 6.0763C52.2421 5.18948 52.2054 4.12991 51.9426 3.28915C51.7165 2.55781 51.2671 2.27277 50.6285 2.27277Z" fill="#221F1F"/>
<path d="M59.0724 11.5815H57.0716C56.871 11.5671 56.7099 11.403 56.7099 11.2015L56.707 0.692027C56.7239 0.499114 56.8907 0.349391 57.0942 0.349391H58.9566C59.1318 0.358024 59.2758 0.478961 59.3155 0.64308V2.24972H59.3521C59.9145 0.812958 60.7031 0.127686 62.0906 0.127686C62.9921 0.127686 63.8711 0.458804 64.4362 1.36579C64.9619 2.20654 64.9619 3.62028 64.9619 4.63666V11.2504C64.9393 11.4347 64.7725 11.5815 64.5748 11.5815H62.5598C62.3761 11.5671 62.2235 11.4289 62.2037 11.2504V5.54364C62.2037 4.39481 62.3337 2.7133 60.9461 2.7133C60.4571 2.7133 60.0079 3.0473 59.7845 3.55405C59.502 4.19613 59.4652 4.83534 59.4652 5.54364V11.2015C59.4624 11.4116 59.2871 11.5815 59.0724 11.5815Z" fill="#221F1F"/>
<path d="M32.3013 6.56285V6.11945C30.8488 6.11945 29.3142 6.43616 29.3142 8.18102C29.3142 9.06496 29.7636 9.66386 30.5351 9.66386C31.1003 9.66386 31.6062 9.3097 31.9255 8.73385C32.3211 8.02554 32.3013 7.36041 32.3013 6.56285ZM34.3276 11.5527C34.1948 11.6736 34.0026 11.6822 33.8529 11.6016C33.1858 11.0373 33.0672 10.7753 32.6998 10.2368C31.5976 11.3828 30.8176 11.7254 29.3878 11.7254C27.6978 11.7254 26.3809 10.663 26.3809 8.53517C26.3809 6.87382 27.2654 5.74226 28.523 5.18943C29.6138 4.69995 31.137 4.61357 32.3013 4.47824V4.21336C32.3013 3.72675 32.3381 3.15089 32.0583 2.73052C31.8124 2.35333 31.3434 2.19785 30.9307 2.19785C30.1649 2.19785 29.481 2.59807 29.3142 3.4273C29.2804 3.61158 29.1475 3.79297 28.9667 3.80161L27.0167 3.58855C26.8528 3.55112 26.6719 3.41578 26.7172 3.15953C27.1665 0.752439 29.3001 0.0268555 31.2105 0.0268555C32.1883 0.0268555 33.4657 0.29175 34.2371 1.04612C35.215 1.97614 35.1217 3.21712 35.1217 4.5675V7.75777C35.1217 8.71657 35.5117 9.13694 35.879 9.65522C36.009 9.83949 36.0374 10.0612 35.8735 10.1994C35.4637 10.5478 34.7345 11.1956 34.3332 11.5584L34.3276 11.5527Z" fill="#221F1F"/>
<path d="M5.95959 6.56285V6.11945C4.50701 6.11945 2.97248 6.43616 2.97248 8.18102C2.97248 9.06496 3.42181 9.66386 4.19332 9.66386C4.75852 9.66386 5.26439 9.3097 5.58372 8.73385C5.97937 8.02554 5.95959 7.36041 5.95959 6.56285ZM7.98585 11.5527C7.85303 11.6736 7.66086 11.6822 7.51108 11.6016C6.84414 11.0373 6.72545 10.7753 6.35806 10.2368C5.2559 11.3828 4.47593 11.7254 3.04596 11.7254C1.35599 11.7254 0.0390625 10.663 0.0390625 8.53517C0.0390625 6.87382 0.923609 5.74226 2.1812 5.18943C3.27204 4.69995 4.79526 4.61357 5.95959 4.47824V4.21336C5.95959 3.72675 5.99633 3.15089 5.71656 2.73052C5.47069 2.35333 5.00157 2.19785 4.58896 2.19785C3.82311 2.19785 3.13922 2.59807 2.97248 3.4273C2.93856 3.61158 2.80574 3.79297 2.62487 3.80161L0.674919 3.58855C0.511008 3.55112 0.330143 3.41578 0.37536 3.15953C0.824698 0.752439 2.95835 0.0268555 4.86875 0.0268555C5.84655 0.0268555 7.12391 0.29175 7.89542 1.04612C8.87323 1.97614 8.77997 3.21712 8.77997 4.5675V7.75777C8.77997 8.71657 9.16996 9.13694 9.53734 9.65522C9.66734 9.83949 9.6956 10.0612 9.53169 10.1994C9.12192 10.5478 8.3928 11.1956 7.99151 11.5584L7.98585 11.5527Z" fill="#221F1F"/>
</g>
</g>
<defs>
<clipPath id="clip0_156_869">
<rect width="65" height="20" fill="white"/>
</clipPath>
</defs>
</svg>
