<svg width="65" height="28" viewBox="0 0 65 28" fill="none" xmlns="http://www.w3.org/2000/svg">
<g clip-path="url(#clip0_156_852)">
<mask id="mask0_156_852" style="mask-type:luminance" maskUnits="userSpaceOnUse" x="0" y="0" width="65" height="28">
<path d="M65 0H0V27.9846H65V0Z" fill="white"/>
</mask>
<g mask="url(#mask0_156_852)">
<path fill-rule="evenodd" clip-rule="evenodd" d="M19.9884 21.389L19.9597 22.0589C19.9651 22.2178 19.9802 22.3767 20.0048 22.5355C20.0321 22.6917 20.069 22.8465 20.1154 23C20.1618 23.1534 20.2193 23.3026 20.2875 23.4478C20.3559 23.5903 20.4338 23.7286 20.5212 23.8629C20.8819 24.3971 21.5335 24.6724 22.1688 24.6724C23.0499 24.6724 23.6605 24.2409 24.0744 23.4724L24.5047 23.6903C24.0335 24.7176 22.9597 25.2518 21.8573 25.2518C20.9843 25.2518 20.222 25.0175 19.5867 24.4093C19.431 24.245 19.2916 24.0724 19.1688 23.8835C19.0458 23.6944 18.9433 23.493 18.8613 23.2875C18.7753 23.078 18.7138 22.8643 18.6728 22.6423C18.6319 22.4246 18.6113 22.1986 18.6113 21.9767C18.6113 20.0904 19.7917 18.7385 21.7138 18.7221C23.2712 18.7097 24.5294 19.7659 24.5047 21.3931H19.9884M23.1278 20.8548C23.1278 19.8933 22.517 19.2563 21.6359 19.2563C20.7138 19.2563 20.1032 20.0206 20.013 20.8548H23.1278ZM33.0253 23.5094C33.0253 24.2122 33.14 24.7094 33.9474 24.7587H34.1154V25.1491H30.6647V24.7587H30.845C31.6605 24.7052 31.7753 24.2245 31.7753 23.4972V20.8178C31.7807 20.7356 31.7807 20.6534 31.7753 20.5712C31.7671 20.4918 31.7548 20.4111 31.7383 20.3289C31.7192 20.2493 31.6961 20.1713 31.6688 20.0946C31.6414 20.0179 31.6086 19.9425 31.5704 19.8685C31.5185 19.7947 31.4597 19.7275 31.3941 19.6672C31.3258 19.6097 31.252 19.5604 31.1728 19.5192C31.0935 19.4782 31.0116 19.448 30.9269 19.4289C30.8395 19.4097 30.7507 19.4001 30.6605 19.4001C29.8039 19.4001 28.9721 19.8973 28.3491 20.4397V23.4972C28.3491 24.2245 28.4679 24.7094 29.2834 24.7587H29.4639V25.1491H25.9515V24.7587H26.0949C26.9515 24.7218 27.1072 24.3149 27.1072 23.4972V20.7932C27.1072 20.0618 26.976 19.581 26.1606 19.5316H25.9515V19.1412L27.9392 18.8536H28.3531V19.8851C29.1318 19.1577 30.0417 18.7262 31.1195 18.7262C31.2452 18.7262 31.371 18.7372 31.4965 18.7591C31.6222 18.7837 31.7452 18.8179 31.8655 18.8618C31.9857 18.9056 32.1004 18.9604 32.2097 19.0262C32.319 19.0892 32.4228 19.1632 32.5212 19.2481C32.9597 19.6262 33.0253 20.0494 33.0253 20.6V23.5094ZM36.6605 21.389L36.6318 22.0589C36.6373 22.2178 36.6523 22.3767 36.6769 22.5355C36.7042 22.6917 36.7411 22.8465 36.7875 23C36.8341 23.1534 36.8914 23.3026 36.9597 23.4478C37.028 23.5903 37.1059 23.7286 37.1933 23.8629C37.554 24.3971 38.2056 24.6724 38.8409 24.6724C39.722 24.6724 40.3326 24.2409 40.7466 23.4724L41.177 23.6944C40.7098 24.7176 39.6318 25.2518 38.5294 25.2518C37.6605 25.2518 36.8941 25.0175 36.2548 24.4093C36.1032 24.245 35.9639 24.0724 35.8409 23.8835C35.7179 23.6944 35.6155 23.493 35.5334 23.2875C35.4515 23.078 35.3859 22.8643 35.3449 22.6423C35.304 22.4246 35.2834 22.1986 35.2834 21.9767C35.2834 20.0904 36.4638 18.7385 38.3859 18.7221C39.9433 18.7097 41.2016 19.7659 41.181 21.3931H36.6605V21.389ZM39.7999 20.8548C39.7999 19.8933 39.1892 19.2521 38.308 19.2521C37.3859 19.2521 36.7753 20.0206 36.6851 20.8548H39.7999ZM45.4515 23.493C45.4761 24.2368 45.5827 24.7052 46.4105 24.7422L46.6318 24.7587V25.145H43.0703V24.7587H43.2015C44.058 24.7052 44.2016 24.3025 44.2016 23.493V20.7891C44.2016 20.0618 44.0704 19.581 43.2548 19.5276H43.0457V19.1371L45.0334 18.8536H45.4474V19.8275C46.0171 19.2439 46.7589 18.7221 47.6277 18.7221C48.054 18.7221 48.5867 18.8906 48.5867 19.4124C48.5909 19.507 48.5745 19.5974 48.5376 19.6837C48.5048 19.7741 48.4515 19.8521 48.3818 19.9179C48.3163 19.9836 48.2385 20.037 48.1482 20.07C48.0622 20.1028 47.9679 20.1192 47.8737 20.1152C47.2629 20.1152 47.1195 19.6837 46.722 19.6837C46.2794 19.6837 45.7343 20.0864 45.4474 20.3987V23.493H45.4515ZM54.0129 24.4299C54.9966 24.5656 56.1032 24.6888 56.1032 25.9011C56.1032 27.6804 53.9965 27.9557 52.6114 27.9557C51.558 27.9557 49.4556 27.8119 49.4556 26.4066C49.4556 25.6669 50.0786 25.4737 50.6892 25.2764V25.2476C50.181 25.1162 49.7426 24.767 49.7426 24.1958C49.7426 23.4806 50.3654 22.9876 51.0131 22.8684C50.8531 22.778 50.7056 22.6629 50.5744 22.5314C50.4433 22.3958 50.3326 22.2479 50.2425 22.0835C50.1523 21.9192 50.0826 21.7466 50.0417 21.5657C50.0007 21.3808 49.9802 21.1958 49.9884 21.0109C50.0417 19.5644 51.2589 18.7221 52.595 18.7221C52.696 18.7221 52.7972 18.7262 52.8982 18.7345C52.9966 18.7454 53.095 18.7591 53.1933 18.7755C53.2944 18.7919 53.3928 18.8139 53.4884 18.8412C53.5868 18.8659 53.6823 18.8946 53.7753 18.9276C54.0908 18.3316 54.5745 17.8879 55.2712 17.8879C55.6196 17.8879 56.0375 18.0317 56.0375 18.4468C56.0375 18.5125 56.0253 18.5741 56.0048 18.6357C55.9802 18.6975 55.9433 18.7509 55.8982 18.796C55.8532 18.8412 55.7999 18.8782 55.7424 18.9028C55.681 18.9276 55.6196 18.9398 55.5539 18.9398C55.2589 18.9398 55.0089 18.7097 54.7385 18.7097C54.4638 18.7097 54.3368 18.8906 54.1687 19.0837C54.8327 19.5644 55.2425 20.1891 55.2425 21.0357C55.2425 21.1918 55.2221 21.348 55.1851 21.4999C55.1482 21.6521 55.0949 21.8 55.0294 21.9438C54.9597 22.0835 54.8777 22.215 54.7794 22.3382C54.6852 22.4616 54.5745 22.5766 54.4515 22.6753C53.9351 23.1026 53.2178 23.2217 52.5581 23.2217C52.457 23.2217 52.3572 23.2177 52.2588 23.2095C52.1606 23.2013 52.0621 23.1889 51.9639 23.1725C51.8655 23.1534 51.7685 23.1314 51.6728 23.1067C51.5772 23.0794 51.483 23.0479 51.39 23.0122C51.1237 23.1191 50.7671 23.4026 50.7671 23.7026C50.7671 24.1588 51.4801 24.208 51.7916 24.2491L54.0129 24.4299ZM51.1688 25.3956C50.6769 25.5517 50.2343 25.7572 50.2343 26.3161C50.2343 27.4626 51.8573 27.5408 52.6893 27.5408C53.5211 27.5408 55.1933 27.475 55.1933 26.3366C55.1933 25.6093 54.2589 25.6504 53.7262 25.5847L51.1728 25.3915L51.1688 25.3956ZM51.2467 20.9987C51.2467 21.9726 51.513 22.7945 52.6482 22.7945C53.0868 22.7945 53.5662 22.5849 53.7753 22.1821C53.9434 21.8576 53.9843 21.3233 53.9843 20.9575C53.9843 20.0083 53.7507 19.1905 52.6523 19.1905C51.5745 19.1905 51.2507 20.0864 51.2507 20.9987H51.2467ZM62.3163 21.0109C62.4351 20.6864 62.6154 20.2096 62.6154 19.8645C62.6154 19.3713 62.1114 19.2933 61.7343 19.2439V18.8536H64.6155V19.2439C63.7465 19.3878 63.5007 19.8151 63.1892 20.5712L61.1113 25.5765C60.8777 26.1353 60.6564 26.6695 60.2671 27.1216C60.1578 27.2476 60.0375 27.3599 59.9065 27.4585C59.7753 27.5572 59.6345 27.6421 59.4842 27.7133C59.3368 27.7818 59.1824 27.8365 59.0212 27.8777C58.8627 27.916 58.7002 27.938 58.5334 27.9435C58.054 27.9435 57.3695 27.7092 57.3695 27.1421C57.3695 27.0558 57.3859 26.9696 57.4228 26.8873C57.4556 26.8093 57.5047 26.7353 57.5704 26.6737C57.6319 26.6161 57.7056 26.5668 57.7876 26.538C57.8695 26.5052 57.9556 26.4888 58.0416 26.4928C58.64 26.4928 58.64 27.1709 59.2424 27.1709C59.8901 27.1709 60.3204 26.0901 60.5129 25.6093L60.5662 25.5025L58.3613 20.2096C58.058 19.5192 58.0089 19.3261 57.1934 19.2481V18.8577H60.2794V19.2481C59.9966 19.2605 59.5663 19.3385 59.5663 19.7001C59.569 19.7384 59.5732 19.7754 59.5786 19.8111C59.5841 19.8466 59.5908 19.8823 59.599 19.9179C59.6099 19.9536 59.6223 19.9878 59.6359 20.0206C59.6496 20.0534 59.666 20.0864 59.6851 20.1192L61.2015 23.9286L62.3163 21.0151V21.0109Z" fill="#231F20"/>
<path fill-rule="evenodd" clip-rule="evenodd" d="M15.9472 2.57648H26.5537V6.81731L23.7791 6.82142V16.5318H18.7176V6.82142L15.9472 6.81731V2.57648ZM31.7054 11.4609L30.9922 16.5236H25.9471L27.9021 2.5847H32.2586L34.3488 7.15839L36.4349 2.5847H40.7955L42.7504 16.5236H37.7012L36.9922 11.4609L34.3488 16.7249L31.7054 11.4609ZM52.3283 2.92988C53.2013 3.2915 53.9922 3.82161 54.6602 4.49143C55.3242 5.15714 55.8529 5.95025 56.2135 6.82142C56.5742 7.69672 56.7586 8.62953 56.7586 9.57468C56.7586 12.4841 55.0127 15.1059 52.3283 16.2195C49.648 17.3331 46.5619 16.7167 44.5085 14.6621C42.4553 12.6033 41.8406 9.50893 42.9513 6.82142C44.066 4.13392 46.6807 2.38333 49.5823 2.38333C50.5249 2.38333 51.4594 2.56826 52.3283 2.92988ZM50.5045 11.8019C50.7955 11.6828 51.0578 11.5061 51.2832 11.2842C51.5045 11.0581 51.6848 10.7952 51.8036 10.5034C51.9266 10.2116 51.9881 9.89931 51.9881 9.5829C51.9881 8.60898 51.4061 7.7337 50.5086 7.36386C49.6152 6.98991 48.5824 7.19537 47.8979 7.88163C47.2136 8.56789 47.0046 9.59934 47.3734 10.4952C47.7422 11.3951 48.6151 11.9827 49.5823 11.9827C49.898 11.9869 50.2135 11.9252 50.5045 11.8019ZM2.81189 7.62686L14.6316 7.05566L15.0496 8.2145L2.81189 7.6474V7.62686ZM2.32419 9.01992L15.1357 8.44872L15.5536 9.60345L2.32419 9.03635V9.01992ZM1.84059 10.413L15.6357 9.84179L16.0538 11.0006L1.84059 10.4335V10.413ZM3.62746 6.59541L6.00861 0.00402832H12.0865L14.5537 6.82964L3.62746 6.59541ZM8.91025 11.3335L7.16435 16.5358H0.0332031L1.86926 11.4321L8.91025 11.3335ZM16.1233 11.2307L18.0331 16.5358H10.898L9.14795 11.3335L16.1233 11.2307ZM58.9595 13.0306C59.5947 13.0676 60.0127 12.9156 60.1274 12.3526C60.1357 12.3142 60.1412 12.2759 60.1439 12.2375C60.1439 12.1992 60.1412 12.1608 60.1357 12.1225C60.1301 12.0841 60.1219 12.0458 60.111 12.0074C60.1001 11.9691 60.0864 11.9334 60.0701 11.9006C59.8201 11.3294 59.0659 10.7746 59.0659 10.7746C57.4799 9.66098 56.7791 8.17339 56.7791 6.78033C56.7791 4.24898 59.0537 2.3669 61.5865 2.3669C63.7504 2.3669 64.3488 2.8066 64.3488 2.8066L64.5045 6.78444C64.3651 6.67759 64.219 6.58445 64.066 6.50501C63.913 6.42282 63.7545 6.35433 63.5906 6.29954C63.4239 6.24474 63.2558 6.20365 63.0865 6.17625C62.9143 6.14886 62.7408 6.13516 62.5659 6.13516C61.8323 6.13516 61.3487 6.49678 61.3487 7.1173C61.3487 7.53234 62.0783 7.98026 62.4144 8.23093C62.5619 8.33229 62.704 8.43913 62.8406 8.55146C62.9799 8.66652 63.1138 8.78568 63.2422 8.90897C63.3706 9.03499 63.4949 9.16511 63.6152 9.29936C63.7327 9.43359 63.8446 9.57194 63.9512 9.7144C64.0933 9.90891 64.219 10.113 64.3282 10.3267C64.4348 10.5404 64.5263 10.7609 64.6029 10.9883C64.6766 11.2157 64.7313 11.4472 64.7668 11.6828C64.8051 11.9211 64.8242 12.1595 64.8242 12.3978C64.8242 14.9332 62.7176 16.9921 60.1889 16.9921C58.0209 16.9921 56.7791 16.2687 56.7791 16.2687V12.2499C56.7791 12.2499 57.8078 13.0348 58.9553 13.0348L58.9595 13.0306Z" fill="#007CC3"/>
<path fill-rule="evenodd" clip-rule="evenodd" d="M63.4727 24.4833C63.4686 24.171 63.6571 23.8915 63.9399 23.7723C64.2269 23.6532 64.5547 23.7148 64.776 23.9367C64.9932 24.1545 65.0629 24.4833 64.9441 24.7709C64.8251 25.0586 64.5465 25.2434 64.235 25.2434C64.1366 25.2434 64.0382 25.227 63.944 25.19C63.8497 25.149 63.7678 25.0956 63.694 25.0257C63.6243 24.9517 63.567 24.8695 63.5301 24.775C63.4891 24.6806 63.4727 24.5818 63.4727 24.4833ZM64.8826 24.4833C64.8866 24.2203 64.7309 23.9819 64.4891 23.8792C64.2473 23.7805 63.9645 23.834 63.78 24.0188C63.5957 24.2038 63.5382 24.4833 63.6367 24.7257C63.7391 24.9681 63.9727 25.1284 64.235 25.1284C64.3211 25.1284 64.403 25.1079 64.485 25.0791C64.5629 25.0463 64.6326 24.9969 64.6939 24.9395C64.7514 24.8777 64.8005 24.8079 64.8333 24.7298C64.8662 24.6518 64.8826 24.5654 64.8826 24.4833ZM64.4603 24.8941L64.2103 24.512H64.067V24.8941H63.9522V24.06H64.3129C64.4645 24.06 64.612 24.1012 64.612 24.2819C64.612 24.4586 64.4973 24.5079 64.3457 24.512L64.5957 24.8941H64.4603ZM64.2103 24.3929C64.3129 24.3929 64.4973 24.4135 64.4973 24.2777C64.4973 24.1915 64.3825 24.1792 64.2924 24.1792H64.0711V24.3929H64.2103Z" fill="#231F20"/>
</g>
</g>
<defs>
<clipPath id="clip0_156_852">
<rect width="65" height="28" fill="white"/>
</clipPath>
</defs>
</svg>
