<svg width="65" height="13" viewBox="0 0 65 13" fill="none" xmlns="http://www.w3.org/2000/svg">
<g clip-path="url(#clip0_156_844)">
<mask id="mask0_156_844" style="mask-type:luminance" maskUnits="userSpaceOnUse" x="0" y="0" width="65" height="13">
<path d="M65 0H0V12.8891H65V0Z" fill="white"/>
</mask>
<g mask="url(#mask0_156_844)">
<path d="M13.2005 10.2854C13.2432 10.3286 13.316 10.2767 13.2904 10.2205L8.40896 1.69983L7.48407 0.0908624C7.4498 0.017334 7.38558 0.017334 7.35132 0.017334C7.31278 0.017334 7.2614 0.0346347 7.23142 0.108163L5.91259 4.58907C5.70277 5.29408 6.21661 5.99477 6.94454 5.99477H8.27194C9.04269 5.99477 9.7749 6.33646 10.2845 6.92036L13.2005 10.2854ZM4.99624 4.88319L6.0282 1.4014C6.04961 1.33651 5.96396 1.29759 5.92971 1.35382L0.016339 11.6911C-0.0179167 11.7646 0.00777505 11.8208 0.0377487 11.8554C0.0634403 11.8943 0.119106 11.9289 0.200463 11.8943L0.21759 11.8857L5.45869 9.93935C6.08386 9.70146 6.35362 8.95752 6.01963 8.36497L5.24032 6.99389C4.87207 6.35375 4.78215 5.5882 4.99624 4.88319ZM12.3312 12.6729H13.8984C13.967 12.6729 14.0054 12.6167 14.0226 12.5864C14.0312 12.5604 14.0483 12.4955 14.0054 12.4436L10.0575 7.8719C9.56937 7.3053 8.683 7.39613 8.31048 8.04491L7.56113 9.35977C7.24427 9.90907 6.75184 10.32 6.16522 10.5406L0.671477 12.5691C0.615811 12.5864 0.624376 12.6729 0.688605 12.6729H12.3312Z" fill="black"/>
<path fill-rule="evenodd" clip-rule="evenodd" d="M23.4007 1.25424L28.3978 12.6165H27.1133L25.2249 8.32594L24.8138 9.2602C24.7582 9.38995 24.634 9.47212 24.4884 9.47212H19.1188L17.7357 12.6165H16.4512L21.4482 1.25424C21.6109 0.851996 22.0006 0.592483 22.4244 0.592483C22.8569 0.592483 23.2381 0.851996 23.4007 1.25424ZM25.2591 8.24377H25.1906L25.2249 8.32594L25.2591 8.24377ZM25.1864 8.24377L22.5144 2.17118C22.4802 2.089 22.3602 2.089 22.326 2.17118L19.6541 8.24377H25.1864ZM46.0566 12.8847C42.5283 12.8847 39.6765 10.0041 39.6765 6.44015C39.6765 2.8762 42.5283 -0.00439453 46.0566 -0.00439453C49.5892 -0.00439453 52.4409 2.8762 52.4409 6.44015C52.4409 10.0041 49.5892 12.8847 46.0566 12.8847ZM51.2805 6.44015C51.2805 3.52064 48.9469 1.15909 46.0523 1.15909C43.162 1.15909 40.824 3.52064 40.824 6.44015C40.824 9.364 43.162 11.7256 46.0523 11.7256C48.9469 11.7256 51.2805 9.364 51.2805 6.44015ZM35.3303 6.31472C35.2747 6.3969 35.2747 6.49638 35.3303 6.57857L39.3425 12.6036H37.9465L34.3712 7.23599C34.2984 7.12787 34.127 7.12787 34.0542 7.23599L30.4788 12.6036H29.0829L33.1037 6.57857C33.1593 6.49638 33.1593 6.3969 33.1037 6.31472L29.0829 0.28972H30.4788L34.0628 5.66594C34.1356 5.77408 34.3069 5.77408 34.3797 5.66594L37.9551 0.28972H39.3511L35.3303 6.31472ZM64.9956 0.28972V12.5949H63.8181L55.4982 1.46185V12.5949H54.3507V1.39697C54.3507 0.813068 54.7747 0.30702 55.3356 0.242142C55.7252 0.19889 56.1062 0.354598 56.3504 0.666012L63.848 10.6918V0.28972H64.9956Z" fill="black"/>
</g>
</g>
<defs>
<clipPath id="clip0_156_844">
<rect width="65" height="13" fill="white"/>
</clipPath>
</defs>
</svg>
