<svg width="1159" height="278" viewBox="0 0 1159 278" fill="none" xmlns="http://www.w3.org/2000/svg">
<path d="M0.476562 215V210.5C20.2766 201.8 23.2766 199.1 23.2766 175.4V40.1C23.2766 16.4 20.2766 13.7 0.476562 5V0.5H98.2766C150.477 0.5 181.977 19.1 181.977 57.8C181.977 99.8 144.477 120.2 77.8766 120.2H74.5766V175.4C74.5766 199.1 77.8766 201.8 99.4766 210.5V215H0.476562ZM74.5766 107H77.5766C114.477 107 133.377 88.1 133.377 58.4C133.377 28.4 114.777 16.1 85.9766 16.1H74.5766V107Z" fill="url(#paint0_linear_2187_10940)"/>
<path d="M196.423 215V210.5C210.823 203.3 214.123 200 214.123 177.5V118.1C214.123 98 212.323 89.3 196.423 81.2V77C217.123 75.8 238.423 71.9 259.123 65.6L258.223 95.6H259.123C265.423 78.5 280.723 66.2 300.223 66.2C306.223 66.2 310.123 67.4 314.023 69.5L308.323 117.8H303.823C294.223 106.4 283.423 98.6 274.723 98.6C267.523 98.6 262.723 104 260.023 109.7V177.5C260.023 200 264.223 203.3 282.823 210.5V215H196.423Z" fill="url(#paint1_linear_2187_10940)"/>
<path d="M399.87 218C354.27 218 323.97 190.1 323.97 143.6C323.97 97.4 353.97 66.2 401.67 66.2C447.27 66.2 477.57 94.4 477.57 140.9C477.57 187.1 447.87 218 399.87 218ZM407.67 205.1C419.67 205.1 430.77 193.7 430.77 165.5C430.77 139.7 421.47 79.4 394.17 79.4C382.47 79.4 370.77 90.8 370.77 119C370.77 143.9 380.07 205.1 407.67 205.1Z" fill="url(#paint2_linear_2187_10940)"/>
<path d="M479.234 277.7L477.434 273.2C497.834 262.4 505.634 248.6 505.634 217.7V121.4C505.634 92 501.134 90.2 488.234 81.5V77.3C509.234 75.8 530.534 71.9 551.534 65.6V194C551.534 248.3 517.934 270.2 479.234 277.7ZM526.034 48.5C512.834 48.5 501.734 38 501.734 25.4C501.734 13.4 512.834 2.9 526.034 2.9C539.234 2.9 550.034 13.4 550.034 25.4C550.034 38 539.234 48.5 526.034 48.5Z" fill="url(#paint3_linear_2187_10940)"/>
<path d="M647.016 218C611.316 218 576.216 190.4 576.216 141.5C576.216 94.1 608.916 66.2 647.916 66.2C685.116 66.2 709.716 90.2 709.716 127.7V134.6H618.516V137.6C618.516 165.2 638.916 186.8 665.916 186.8C681.516 186.8 696.516 179 704.616 165.8L708.516 168.2C700.416 197 678.816 218 647.016 218ZM618.816 119.9L667.716 119C665.316 93.8 656.616 79.7 643.116 79.7C629.316 79.7 620.916 95.3 618.816 119.9Z" fill="url(#paint4_linear_2187_10940)"/>
<path d="M797.581 218C761.581 218 727.681 191.3 727.681 141.5C727.681 92.3 760.681 66.2 796.081 66.2C822.781 66.2 841.681 80.9 852.181 98.6L822.481 122L819.481 120.5C814.981 94.7 805.381 79.4 793.681 79.4C781.381 79.4 769.381 96.8 769.381 126.2C769.381 161.9 787.081 187.4 815.881 187.4C831.481 187.4 843.181 179.9 850.381 170L854.581 172.7C846.481 198.5 827.281 218 797.581 218Z" fill="url(#paint5_linear_2187_10940)"/>
<path d="M917.241 218C895.941 218 877.341 205.1 877.341 176.3V84.5H863.241V74.6C880.941 64.1 906.441 46.4 917.541 28.7H922.941V70.1H959.541L956.541 84.5H923.241L922.641 164C922.341 186.5 932.841 191.6 942.141 191.6C948.441 191.6 955.041 189.2 960.441 184.4L963.741 188.3C955.041 203.3 940.341 218 917.241 218Z" fill="url(#paint6_linear_2187_10940)"/>
<path d="M1034.06 218.9C1016.96 218.9 998.361 214.1 981.861 208.1L976.761 160.1L980.661 159.2C999.861 188.6 1017.56 206 1032.26 206C1040.36 206 1048.16 200.9 1048.16 191.3C1048.16 181.1 1039.16 171.2 1018.16 159.8C1000.76 150.2 976.161 138.2 976.161 108.8C976.161 79.7 1000.46 66.2 1026.56 66.2C1040.66 66.2 1057.76 70.1 1073.36 74.9L1077.26 119.9L1073.06 121.1C1056.26 95 1040.06 79.4 1027.76 79.4C1021.16 79.4 1013.66 84.2 1013.66 94.4C1013.66 106.4 1023.86 112.4 1044.26 123.2C1067.96 135.8 1086.26 149.3 1086.26 174.8C1086.26 201.2 1067.06 218.9 1034.06 218.9Z" fill="url(#paint7_linear_2187_10940)"/>
<path d="M1134.49 217.4C1121.29 217.4 1110.19 206.3 1110.19 193.4C1110.19 180.2 1121.29 169.1 1134.49 169.1C1147.69 169.1 1158.79 180.2 1158.79 193.4C1158.79 206.3 1147.69 217.4 1134.49 217.4Z" fill="url(#paint8_linear_2187_10940)"/>
<defs>
<linearGradient id="paint0_linear_2187_10940" x1="718.18" y1="-36" x2="726.238" y2="163.015" gradientUnits="userSpaceOnUse">
<stop stop-color="#0D0D0D"/>
<stop offset="0.889154" stop-color="#F5F5F5"/>
</linearGradient>
<linearGradient id="paint1_linear_2187_10940" x1="718.18" y1="-36" x2="726.238" y2="163.015" gradientUnits="userSpaceOnUse">
<stop stop-color="#0D0D0D"/>
<stop offset="0.889154" stop-color="#F5F5F5"/>
</linearGradient>
<linearGradient id="paint2_linear_2187_10940" x1="718.18" y1="-36" x2="726.238" y2="163.015" gradientUnits="userSpaceOnUse">
<stop stop-color="#0D0D0D"/>
<stop offset="0.889154" stop-color="#F5F5F5"/>
</linearGradient>
<linearGradient id="paint3_linear_2187_10940" x1="718.18" y1="-36" x2="726.238" y2="163.015" gradientUnits="userSpaceOnUse">
<stop stop-color="#0D0D0D"/>
<stop offset="0.889154" stop-color="#F5F5F5"/>
</linearGradient>
<linearGradient id="paint4_linear_2187_10940" x1="718.18" y1="-36" x2="726.238" y2="163.015" gradientUnits="userSpaceOnUse">
<stop stop-color="#0D0D0D"/>
<stop offset="0.889154" stop-color="#F5F5F5"/>
</linearGradient>
<linearGradient id="paint5_linear_2187_10940" x1="718.18" y1="-36" x2="726.238" y2="163.015" gradientUnits="userSpaceOnUse">
<stop stop-color="#0D0D0D"/>
<stop offset="0.889154" stop-color="#F5F5F5"/>
</linearGradient>
<linearGradient id="paint6_linear_2187_10940" x1="718.18" y1="-36" x2="726.238" y2="163.015" gradientUnits="userSpaceOnUse">
<stop stop-color="#0D0D0D"/>
<stop offset="0.889154" stop-color="#F5F5F5"/>
</linearGradient>
<linearGradient id="paint7_linear_2187_10940" x1="718.18" y1="-36" x2="726.238" y2="163.015" gradientUnits="userSpaceOnUse">
<stop stop-color="#0D0D0D"/>
<stop offset="0.889154" stop-color="#F5F5F5"/>
</linearGradient>
<linearGradient id="paint8_linear_2187_10940" x1="718.18" y1="-36" x2="726.238" y2="163.015" gradientUnits="userSpaceOnUse">
<stop stop-color="#0D0D0D"/>
<stop offset="0.889154" stop-color="#F5F5F5"/>
</linearGradient>
</defs>
</svg>
