<svg width="185" height="140" viewBox="0 0 185 140" fill="none" xmlns="http://www.w3.org/2000/svg">
<path d="M62.8669 0C91.282 0 119.697 0 148.973 0C148.973 13.5657 148.973 27.1314 148.973 41.1082C160.862 41.1082 172.751 41.1082 185 41.1082C185 51.6076 183.849 61.3389 180.912 71.3269C180.836 71.5847 180.761 71.8426 180.683 72.1083C177.157 83.9157 171.388 94.8209 163.934 104.305C163.567 104.774 163.205 105.247 162.844 105.722C161.219 107.827 159.447 109.772 157.645 111.703C157.296 112.079 157.296 112.079 156.94 112.462C155.385 114.112 153.754 115.605 152.039 117.063C151.777 117.298 151.515 117.535 151.256 117.774C147.459 121.243 143.31 124.158 139.008 126.864C138.802 126.994 138.596 127.123 138.384 127.257C132.939 130.651 127.131 133.276 121.123 135.303C120.882 135.386 120.641 135.468 120.392 135.553C111.397 138.592 102.182 139.993 92.7614 139.999C92.5262 140 92.2911 140 92.0488 140C77.6643 139.982 63.7546 136.354 50.858 129.586C50.6524 129.479 50.4468 129.371 50.2349 129.26C42.8956 125.372 36.107 120.211 30.1259 114.251C29.6322 113.76 29.137 113.275 28.6328 112.797C26.7187 110.974 24.9658 109.036 23.2631 106.99C23.1366 106.839 23.0101 106.688 22.8798 106.532C9.76954 90.7807 1.91772 70.5551 0.187465 49.6328C0.158161 49.2826 0.158161 49.2826 0.128266 48.9253C-0.0547611 46.3124 0.0118024 43.7447 0.0118024 41.1082C11.9849 41.1082 23.9581 41.1082 36.294 41.1082C36.547 43.9831 36.7999 46.858 37.0605 49.8199C38.4951 59.0361 41.4094 67.7577 46.5144 75.4105C46.7054 75.699 46.8964 75.9874 47.0932 76.2846C50.1447 80.7406 53.6489 84.8376 57.7567 88.2058C57.8945 88.3204 58.0323 88.435 58.1743 88.5531C69.7711 98.1541 84.7362 102.488 99.3088 100.695C109.374 99.3186 119.048 95.2362 127 88.478C127.348 88.1853 127.348 88.1853 127.703 87.8867C130.21 85.7442 132.612 83.4971 134.665 80.8553C134.846 80.6377 135.028 80.4201 135.215 80.196C144.207 69.2018 148.011 55.6931 148.718 41.3805C120.387 41.3805 92.0562 41.3805 62.8669 41.3805C62.8669 27.7249 62.8669 14.0694 62.8669 0Z" fill="#04151F"/>
</svg>
