<svg width="1242" height="274" viewBox="0 0 1242 274" fill="none" xmlns="http://www.w3.org/2000/svg">
<path d="M123.913 0C179.638 0 235.363 0 292.777 0C292.777 26.5357 292.777 53.0714 292.777 80.4113C316.092 80.4113 339.407 80.4113 363.429 80.4113C363.429 100.949 361.172 119.984 355.412 139.522C355.263 140.026 355.115 140.53 354.962 141.05C348.048 164.146 336.735 185.478 322.117 204.03C321.397 204.948 320.687 205.873 319.978 206.801C316.792 210.918 313.317 214.724 309.782 218.502C309.098 219.236 309.098 219.236 308.401 219.985C305.35 223.212 302.152 226.134 298.79 228.986C298.275 229.446 297.762 229.908 297.253 230.375C289.807 237.162 281.671 242.864 273.235 248.157C272.831 248.411 272.427 248.664 272.011 248.926C261.333 255.564 249.941 260.699 238.159 264.665C237.687 264.826 237.214 264.987 236.727 265.153C219.085 271.098 201.014 273.838 182.54 273.851C182.078 273.851 181.617 273.852 181.142 273.852C152.933 273.817 125.654 266.721 100.363 253.482C99.9595 253.271 99.5563 253.061 99.1409 252.844C84.7477 245.239 71.4345 235.143 59.7049 223.486C58.7368 222.524 57.7657 221.576 56.7768 220.64C53.0231 217.075 49.5855 213.284 46.2463 209.282C45.9983 208.986 45.7502 208.691 45.4947 208.386C19.7841 177.575 4.38584 138.012 0.992637 97.086C0.93517 96.401 0.93517 96.401 0.876543 95.7021C0.517608 90.591 0.648146 85.5684 0.648146 80.4113C24.1287 80.4113 47.6092 80.4113 71.8013 80.4113C72.2974 86.0347 72.7934 91.6582 73.3045 97.4521C76.1179 115.48 81.8332 132.54 91.8444 147.509C92.2191 148.074 92.5937 148.638 92.9797 149.219C98.964 157.936 105.836 165.95 113.892 172.538C114.162 172.762 114.432 172.987 114.711 173.218C137.453 191.998 166.801 200.475 195.38 196.968C215.119 194.276 234.091 186.29 249.684 173.071C250.367 172.498 250.367 172.498 251.064 171.914C255.979 167.723 260.691 163.328 264.717 158.16C265.072 157.734 265.428 157.309 265.795 156.87C283.43 135.365 290.889 108.941 292.276 80.9438C236.716 80.9438 181.157 80.9438 123.913 80.9438C123.913 54.2323 123.913 27.5209 123.913 0Z" fill="#04151F"/>
<path d="M513.25 30.8828C529.786 30.8828 546.322 30.8828 563.358 30.8828C563.358 109.611 563.358 188.34 563.358 269.454C546.823 269.454 530.287 269.454 513.25 269.454C513.085 261.722 512.92 253.989 512.749 246.023C511.261 247.956 509.773 249.889 508.24 251.881C495.789 266.7 476.273 271.75 458.327 273.015C435.101 274.37 411.239 270.861 392.947 254.341C378.981 240.974 370.683 224.171 367.437 204.486C367.362 204.04 367.287 203.595 367.209 203.136C365.086 189.908 364.618 175.034 367.437 161.884C367.525 161.46 367.614 161.036 367.705 160.599C372.667 137.483 385.801 118.209 404.516 105.436C418.684 96.047 435.05 92.9553 451.492 93.0218C451.989 93.0228 452.486 93.0237 452.998 93.0247C473.659 93.0926 494.678 95.979 510.087 112.06C511.133 113.2 511.911 114.218 512.749 115.554C512.915 87.6127 513.08 59.6711 513.25 30.8828ZM419.061 156.344C411.631 165.701 409.731 177.681 410.529 189.575C411.477 199.138 415.488 208.333 422.312 214.718C436.712 226.948 456.418 227.64 473.986 225.62C485.793 224.101 497.416 220.414 505.734 210.876C512.287 201.815 513.685 190.647 512.497 179.561C511.165 168.786 507.651 160.032 499.721 152.831C479.301 136.872 437.165 135.992 419.061 156.344Z" fill="#04151F"/>
<path d="M1143.27 93.0558C1143.76 93.0554 1144.26 93.0551 1144.77 93.0547C1174.21 93.0883 1205.57 98.6071 1227.6 121.013C1236.13 130.307 1241.42 142.552 1241.38 155.594C1241.38 156.326 1241.38 156.326 1241.38 157.072C1241.38 158.703 1241.38 160.334 1241.38 161.965C1241.38 163.136 1241.38 164.306 1241.38 165.477C1241.38 168.653 1241.37 171.829 1241.37 175.005C1241.37 178.325 1241.37 181.645 1241.37 184.965C1241.37 190.536 1241.36 196.108 1241.36 201.679C1241.35 207.417 1241.35 213.155 1241.35 218.893C1241.35 219.251 1241.35 219.608 1241.35 219.977C1241.35 223.086 1241.34 226.196 1241.34 229.306C1241.34 242.689 1241.33 256.072 1241.32 269.455C1224.78 269.455 1208.25 269.455 1191.21 269.455C1191.05 262.953 1190.88 256.45 1190.71 249.751C1189.72 250.981 1188.73 252.211 1187.7 253.479C1167.39 272.774 1133.39 274.955 1107.53 273.715C1087.96 272.433 1069.34 265.778 1054.92 251.349C1054.46 250.909 1054.46 250.909 1053.99 250.461C1046 242.557 1041.45 230.781 1040.89 219.356C1040.88 205.522 1044.47 193.018 1053.62 182.955C1065.5 170.553 1082.56 166.063 1098.48 163.349C1098.94 163.269 1099.41 163.188 1099.89 163.105C1111.08 161.338 1122.36 161.198 1133.64 161.244C1135.59 161.251 1137.53 161.251 1139.48 161.253C1143.14 161.256 1146.8 161.265 1150.46 161.275C1154.64 161.287 1158.81 161.293 1162.99 161.298C1171.56 161.31 1180.14 161.328 1188.71 161.352C1188.39 159.98 1188.08 158.609 1187.76 157.238C1187.67 156.851 1187.58 156.464 1187.49 156.065C1185.8 148.767 1181.59 143.128 1175.68 138.986C1160.03 129.111 1140.7 128.26 1123.28 132.612C1115.03 134.87 1106.67 139.014 1101.52 146.441C1100.53 148.55 1099.53 150.659 1098.51 152.832C1082.8 152.832 1067.1 152.832 1050.91 152.832C1052.01 139.953 1057.68 130.178 1065.94 120.88C1066.28 120.487 1066.62 120.094 1066.97 119.688C1085.96 98.3629 1117 93.0729 1143.27 93.0558ZM1096.51 203.422C1092.83 207.612 1091.68 211.386 1091.83 217.072C1092.28 221.876 1095.09 224.939 1098.51 227.918C1115.01 240.138 1138.08 238.477 1156.92 234.94C1168.17 232.664 1179.62 228.493 1186.7 218.332C1190.27 212.299 1191.32 206.173 1191.25 199.18C1191.24 198.715 1191.24 198.251 1191.24 197.772C1191.23 196.637 1191.22 195.503 1191.21 194.369C1182.61 194.344 1174.01 194.325 1165.42 194.313C1161.42 194.308 1157.43 194.301 1153.44 194.288C1149.95 194.278 1146.47 194.271 1142.98 194.268C1141.14 194.267 1139.3 194.264 1137.46 194.256C1115.75 193.897 1115.75 193.897 1096.51 203.422Z" fill="#04151F"/>
<path d="M739.741 95.3246C740.307 95.4699 740.307 95.4699 740.885 95.6182C746.632 97.1295 751.959 99.513 757.278 102.247C757.868 102.549 758.458 102.852 759.065 103.163C766.753 107.331 775.484 113.962 778.324 123.016C778.489 114.405 778.654 105.794 778.825 96.9222C795.526 96.9222 812.227 96.9222 829.434 96.9222C829.455 117.058 829.455 117.058 829.459 124.744C829.459 125.216 829.46 125.689 829.46 126.176C829.462 129.705 829.464 133.233 829.465 136.762C829.465 137.261 829.465 137.761 829.466 138.275C829.479 170.123 829.393 201.968 829.183 233.814C829.18 234.269 829.177 234.724 829.174 235.193C829.153 238.352 829.132 241.511 829.111 244.669C829.108 245.064 829.106 245.46 829.103 245.867C829.049 253.731 828.991 261.596 828.933 269.46C812.397 269.46 795.861 269.46 778.825 269.46C778.812 262.909 778.799 256.357 778.786 249.607C778.773 245.447 778.76 241.288 778.745 237.128C778.72 230.531 778.698 223.934 778.689 217.337C778.682 212.531 778.669 207.726 778.647 202.92C778.636 200.379 778.628 197.837 778.628 195.296C778.629 192.897 778.62 190.498 778.604 188.1C778.6 187.226 778.599 186.352 778.601 185.477C778.631 175.065 776.537 166.149 769.586 158.362C758.301 147.246 743.683 144.962 728.871 145.309C718.239 145.775 707.664 149.551 699.654 157.098C699.185 157.522 699.185 157.522 698.705 157.955C693.956 162.557 691.462 168.803 689.633 175.203C689.542 175.51 689.452 175.817 689.359 176.134C689.044 177.795 689.061 179.392 689.053 181.087C689.05 181.465 689.048 181.843 689.045 182.233C689.037 183.499 689.033 184.766 689.029 186.032C689.024 186.94 689.019 187.848 689.014 188.756C689 191.222 688.99 193.687 688.98 196.153C688.969 198.729 688.955 201.305 688.942 203.882C688.917 208.761 688.894 213.64 688.873 218.519C688.843 225.111 688.81 231.704 688.777 238.297C688.725 248.685 688.678 259.072 688.631 269.46C672.095 269.46 655.56 269.46 638.523 269.46C638.462 244.292 638.462 244.292 638.449 233.687C638.441 226.386 638.43 219.084 638.409 211.783C638.394 206.464 638.385 201.144 638.381 195.825C638.379 193.013 638.375 190.201 638.364 187.389C638.279 164.833 638.279 164.833 640.026 155.5C640.145 154.862 640.264 154.224 640.386 153.566C640.672 152.119 641.004 150.701 641.373 149.276C641.5 148.774 641.628 148.271 641.76 147.753C646.387 130.272 656.466 115.47 671.093 105.975C671.412 105.765 671.731 105.554 672.06 105.337C681.564 99.1865 692.717 95.9258 703.663 94.2596C704.219 94.1683 704.219 94.1683 704.786 94.0752C716.294 92.2332 728.438 92.3326 739.741 95.3246Z" fill="#04151F"/>
<path d="M1006.82 111.023C1007.32 111.466 1007.81 111.909 1008.32 112.365C1009.03 112.988 1009.03 112.988 1009.75 113.624C1024.4 127.056 1030.97 147.551 1032.52 167.523C1032.86 172.974 1032.94 178.395 1032.93 183.856C1032.93 184.796 1032.93 185.736 1032.93 186.677C1032.93 189.201 1032.93 191.726 1032.92 194.25C1032.92 196.899 1032.92 199.548 1032.92 202.197C1032.92 207.2 1032.91 212.203 1032.91 217.206C1032.9 223.976 1032.9 230.746 1032.9 237.516C1032.89 248.164 1032.88 258.812 1032.87 269.46C1016.34 269.46 999.802 269.46 982.765 269.46C982.746 263.133 982.728 256.806 982.708 250.287C982.693 246.271 982.677 242.254 982.66 238.238C982.633 231.867 982.607 225.497 982.591 219.127C982.58 214.486 982.563 209.846 982.54 205.205C982.528 202.751 982.519 200.297 982.516 197.843C982.513 195.526 982.502 193.21 982.487 190.894C982.483 190.05 982.481 189.206 982.482 188.362C982.487 181.374 982.085 174.304 978.85 168.047C978.676 167.693 978.501 167.338 978.322 166.972C977.178 164.699 975.92 162.583 974.36 160.6C973.746 159.76 973.746 159.76 973.288 158.653C972.603 157.366 971.992 157.162 970.739 156.565C970.082 156.011 969.436 155.444 968.797 154.867C957.469 145.436 941.477 143.915 927.648 145.648C917.094 147.298 908.002 151.685 900.588 159.76C900.286 160.07 899.984 160.38 899.672 160.7C895.452 165.374 893.02 172.376 892.769 178.743C892.75 179.168 892.731 179.593 892.712 180.031C892.42 187.651 892.453 195.287 892.419 202.912C892.408 205.258 892.394 207.604 892.381 209.95C892.356 214.376 892.333 218.802 892.312 223.228C892.282 229.221 892.249 235.214 892.216 241.206C892.164 250.624 892.118 260.042 892.07 269.46C875.534 269.46 858.999 269.46 841.962 269.46C841.797 212.522 841.631 155.585 841.461 96.9219C858.327 96.9219 875.194 96.9219 892.571 96.9219C892.736 105.181 892.902 113.441 893.072 121.951C894.064 120.193 895.056 118.436 896.078 116.625C905.384 103.484 922.393 96.7097 937.11 93.9597C937.882 93.8444 937.882 93.8444 938.67 93.7267C939.253 93.6306 939.837 93.5345 940.438 93.4355C962.567 90.5967 989.281 95.7067 1006.82 111.023Z" fill="#04151F"/>
<path d="M575.883 96.9219C592.418 96.9219 608.954 96.9219 625.991 96.9219C625.991 153.859 625.991 210.797 625.991 269.46C609.455 269.46 592.919 269.46 575.883 269.46C575.883 212.522 575.883 155.585 575.883 96.9219Z" fill="#04151F"/>
<path d="M620.446 7.51101C627.424 13.3651 632.878 21.3371 634.149 30.893C635.229 40.9311 633.468 51.0063 627.493 59.1098C621.836 66.1056 614.783 71.3046 605.946 72.4229C595.557 73.0258 586.608 71.3299 578.505 63.942C571.463 56.9948 567.522 48.1365 567.129 37.9316C567.005 28.3746 570.026 19.2274 576.291 12.278C588.177 -0.384134 606.474 -3.132 620.446 7.51101Z" fill="#04151F"/>
</svg>
