<svg width="217" height="48" viewBox="0 0 217 48" fill="none" xmlns="http://www.w3.org/2000/svg">
<path d="M21.5624 0C31.3083 0 41.0542 0 51.0955 0C51.0955 4.64859 51.0955 9.29719 51.0955 14.0866C55.1732 14.0866 59.2508 14.0866 63.4521 14.0866C63.4521 17.6845 63.0574 21.0191 62.0499 24.4417C62.024 24.5301 61.998 24.6184 61.9713 24.7095C60.762 28.7556 58.7835 32.4925 56.2269 35.7425C56.1009 35.9032 55.9767 36.0653 55.8528 36.2279C55.2956 36.9492 54.6878 37.6158 54.0696 38.2777C53.95 38.4063 53.95 38.4063 53.8279 38.5375C53.2944 39.1028 52.7351 39.6146 52.1471 40.1143C52.0571 40.1949 51.9674 40.2759 51.8784 40.3577C50.5761 41.5466 49.1531 42.5455 47.6777 43.4727C47.607 43.5172 47.5364 43.5617 47.4636 43.6075C45.5961 44.7704 43.6038 45.6698 41.5432 46.3647C41.4605 46.3929 41.3779 46.4211 41.2927 46.4502C38.2073 47.4917 35.0467 47.9716 31.8157 47.9739C31.735 47.974 31.6544 47.974 31.5713 47.9741C26.6376 47.968 21.8668 46.7248 17.4435 44.4056C17.373 44.3687 17.3024 44.3318 17.2298 44.2938C14.7125 42.9616 12.3841 41.1929 10.3327 39.1508C10.1634 38.9824 9.99353 38.8163 9.82058 38.6523C9.16408 38.0278 8.56287 37.3636 7.97887 36.6626C7.93549 36.6108 7.89211 36.5589 7.84741 36.5055C3.3508 31.108 0.657746 24.1773 0.0642974 17.0078C0.0542468 16.8878 0.0542468 16.8878 0.0439932 16.7653C-0.0187822 15.87 0.00404805 14.9901 0.00404805 14.0866C4.11064 14.0866 8.21724 14.0866 12.4483 14.0866C12.535 15.0718 12.6218 16.0569 12.7112 17.0719C13.2032 20.23 14.2028 23.2187 15.9537 25.8411C16.0192 25.9399 16.0847 26.0388 16.1522 26.1406C17.1988 27.6675 18.4007 29.0715 19.8096 30.2257C19.8569 30.2649 19.9042 30.3042 19.9529 30.3447C23.9304 33.6347 29.0632 35.1198 34.0613 34.5053C37.5137 34.0337 40.8317 32.6348 43.5588 30.3189C43.6783 30.2186 43.6783 30.2186 43.8002 30.1163C44.6598 29.3821 45.4839 28.6121 46.1879 27.7068C46.2501 27.6323 46.3124 27.5577 46.3765 27.4809C49.4607 23.7135 50.7654 19.0845 51.0078 14.1799C41.2908 14.1799 31.5738 14.1799 21.5624 14.1799C21.5624 9.50056 21.5624 4.82118 21.5624 0Z" fill="#04151F"/>
<path d="M89.6585 5.41406C92.5505 5.41406 95.4425 5.41406 98.4221 5.41406C98.4221 19.2059 98.4221 32.9978 98.4221 47.2076C95.5301 47.2076 92.6381 47.2076 89.6585 47.2076C89.6296 45.853 89.6007 44.4984 89.5709 43.1028C89.3106 43.4415 89.0504 43.7801 88.7822 44.129C86.6047 46.7252 83.1914 47.6097 80.0529 47.8314C75.9907 48.0688 71.8174 47.4541 68.6182 44.5601C66.1758 42.2184 64.7245 39.2748 64.1567 35.8263C64.1435 35.7482 64.1304 35.6702 64.1169 35.5897C63.7455 33.2725 63.6638 30.6668 64.1567 28.3632C64.1722 28.2889 64.1877 28.2147 64.2036 28.1381C65.0715 24.0885 67.3686 20.712 70.6417 18.4745C73.1194 16.8297 75.9818 16.2881 78.8575 16.2997C78.9444 16.2999 79.0313 16.3001 79.1208 16.3002C82.7343 16.3121 86.4104 16.8178 89.1053 19.6348C89.2883 19.8345 89.4243 20.0129 89.5709 20.247C89.5998 15.3521 89.6287 10.4573 89.6585 5.41406ZM73.1855 27.3927C71.886 29.0319 71.5537 31.1305 71.6933 33.2142C71.859 34.8894 72.5606 36.5002 73.7541 37.6188C76.2725 39.7613 79.7189 39.8825 82.7915 39.5287C84.8564 39.2625 86.8891 38.6166 88.344 36.9458C89.49 35.3584 89.7345 33.4019 89.5267 31.4599C89.2938 29.5722 88.6792 28.0388 87.2924 26.7773C83.7211 23.9816 76.3517 23.8273 73.1855 27.3927Z" fill="#04151F"/>
<path d="M199.842 16.3049C199.929 16.3048 200.016 16.3048 200.105 16.3047C205.254 16.3106 210.739 17.2774 214.592 21.2026C216.084 22.8307 217.009 24.9757 217.002 27.2605C217.002 27.3887 217.002 27.3887 217.002 27.5194C217.002 27.8051 217.002 28.0909 217.001 28.3767C217.001 28.5817 217.001 28.7867 217.001 28.9918C217.001 29.5482 217.001 30.1046 217 30.661C217 31.2426 217 31.8241 216.999 32.4057C216.999 33.3817 216.999 34.3578 216.998 35.3338C216.997 36.339 216.996 37.3442 216.996 38.3494C216.996 38.4121 216.996 38.4747 216.996 38.5392C216.996 39.084 216.996 39.6287 216.995 40.1735C216.995 42.518 216.993 44.8624 216.991 47.2069C214.099 47.2069 211.207 47.2069 208.228 47.2069C208.199 46.0678 208.17 44.9288 208.14 43.7552C207.967 43.9707 207.793 44.1862 207.614 44.4082C204.062 47.7883 198.116 48.1705 193.593 47.9532C190.17 47.7287 186.913 46.5627 184.391 44.035C184.31 43.958 184.31 43.958 184.228 43.8794C182.831 42.4948 182.036 40.4319 181.938 38.4304C181.935 36.007 182.563 33.8164 184.164 32.0536C186.241 29.8811 189.225 29.0945 192.01 28.619C192.091 28.6049 192.172 28.5908 192.255 28.5763C194.213 28.2667 196.185 28.2422 198.159 28.2503C198.499 28.2515 198.84 28.2516 199.18 28.2518C199.82 28.2524 200.46 28.2539 201.101 28.2558C201.831 28.2579 202.562 28.2589 203.292 28.2598C204.791 28.2617 206.29 28.265 207.79 28.2692C207.735 28.0288 207.679 27.7886 207.624 27.5484C207.608 27.4806 207.593 27.4129 207.577 27.343C207.28 26.0645 206.545 25.0767 205.511 24.3511C202.774 22.6212 199.394 22.4721 196.346 23.2345C194.904 23.63 193.443 24.356 192.541 25.6571C192.368 26.0265 192.194 26.396 192.015 26.7766C189.268 26.7766 186.52 26.7766 183.69 26.7766C183.883 24.5205 184.874 22.8081 186.319 21.1792C186.378 21.1103 186.437 21.0414 186.498 20.9704C189.82 17.2346 195.249 16.3079 199.842 16.3049ZM191.665 35.639C191.022 36.3731 190.821 37.0343 190.847 38.0303C190.925 38.872 191.417 39.4084 192.015 39.9303C194.901 42.0711 198.935 41.7802 202.23 41.1606C204.198 40.7618 206.201 40.0312 207.439 38.2511C208.062 37.1942 208.247 36.121 208.234 34.896C208.233 34.8146 208.233 34.7332 208.233 34.6493C208.231 34.4506 208.23 34.2518 208.228 34.0531C206.724 34.0487 205.22 34.0455 203.716 34.0435C203.018 34.0425 202.319 34.0412 201.621 34.039C201.011 34.0372 200.402 34.036 199.792 34.0356C199.47 34.0353 199.148 34.0348 198.826 34.0334C195.03 33.9704 195.03 33.9704 191.665 35.639Z" fill="#04151F"/>
<path d="M129.266 16.6989C129.365 16.7243 129.365 16.7243 129.466 16.7503C130.472 17.015 131.403 17.4326 132.334 17.9116C132.437 17.9645 132.54 18.0174 132.646 18.072C133.99 18.8022 135.518 19.9637 136.014 21.5499C136.043 20.0414 136.072 18.5329 136.102 16.9787C139.023 16.9787 141.944 16.9787 144.953 16.9787C144.957 20.5061 144.957 20.5061 144.957 21.8526C144.958 21.9354 144.958 22.0182 144.958 22.1035C144.958 22.7216 144.958 23.3398 144.958 23.9579C144.959 24.0454 144.959 24.1329 144.959 24.2231C144.961 29.8022 144.946 35.3809 144.909 40.9598C144.909 41.0395 144.908 41.1192 144.908 41.2013C144.904 41.7547 144.9 42.3081 144.897 42.8615C144.896 42.9307 144.896 42.9999 144.895 43.0712C144.886 44.4489 144.876 45.8266 144.865 47.2044C141.973 47.2044 139.081 47.2044 136.102 47.2044C136.1 46.0567 136.097 44.9089 136.095 43.7264C136.093 42.9977 136.091 42.269 136.088 41.5403C136.084 40.3847 136.08 39.229 136.078 38.0733C136.077 37.2314 136.075 36.3896 136.071 35.5477C136.069 35.1025 136.067 34.6573 136.068 34.2121C136.068 33.7918 136.066 33.3716 136.063 32.9514C136.062 32.7983 136.062 32.6452 136.063 32.4921C136.068 30.668 135.702 29.1061 134.486 27.742C132.512 25.7946 129.956 25.3944 127.365 25.4553C125.506 25.5368 123.656 26.1983 122.255 27.5204C122.173 27.5947 122.173 27.5947 122.089 27.6705C121.259 28.4769 120.823 29.571 120.503 30.6922C120.487 30.746 120.471 30.7998 120.455 30.8552C120.4 31.1463 120.403 31.426 120.401 31.7229C120.401 31.7892 120.4 31.8554 120.4 31.9236C120.399 32.1455 120.398 32.3674 120.397 32.5892C120.396 32.7483 120.395 32.9074 120.394 33.0664C120.392 33.4983 120.39 33.9302 120.389 34.3621C120.387 34.8135 120.384 35.2648 120.382 35.7161C120.377 36.5709 120.374 37.4256 120.37 38.2803C120.365 39.4352 120.359 40.5902 120.353 41.7451C120.344 43.5649 120.336 45.3846 120.327 47.2044C117.436 47.2044 114.544 47.2044 111.564 47.2044C111.553 42.7953 111.553 42.7953 111.551 40.9376C111.55 39.6585 111.548 38.3794 111.544 37.1003C111.541 36.1685 111.54 35.2366 111.539 34.3048C111.539 33.8122 111.538 33.3196 111.536 32.827C111.521 28.8754 111.521 28.8754 111.827 27.2405C111.848 27.1287 111.868 27.0169 111.89 26.9017C111.94 26.6483 111.998 26.3999 112.062 26.1502C112.085 26.0622 112.107 25.9741 112.13 25.8834C112.939 22.821 114.702 20.228 117.26 18.5646C117.316 18.5278 117.372 18.4909 117.429 18.4529C119.092 17.3754 121.042 16.8042 122.957 16.5123C123.054 16.4963 123.054 16.4963 123.153 16.48C125.166 16.1573 127.289 16.1747 129.266 16.6989Z" fill="#04151F"/>
<path d="M175.976 19.4465C176.062 19.5241 176.148 19.6016 176.237 19.6815C176.361 19.7907 176.361 19.7907 176.488 19.902C179.049 22.2551 180.199 25.8455 180.47 29.3443C180.529 30.2991 180.543 31.2487 180.541 32.2054C180.541 32.3702 180.541 32.5349 180.541 32.6996C180.541 33.1419 180.541 33.5841 180.54 34.0264C180.54 34.4904 180.54 34.9544 180.54 35.4185C180.539 36.2949 180.539 37.1714 180.538 38.0479C180.537 39.2339 180.536 40.4198 180.536 41.6058C180.535 43.4711 180.533 45.3365 180.531 47.2018C177.639 47.2018 174.747 47.2018 171.768 47.2018C171.765 46.0934 171.761 44.985 171.758 43.843C171.755 43.1394 171.753 42.4358 171.75 41.7322C171.745 40.6162 171.74 39.5003 171.737 38.3843C171.735 37.5714 171.733 36.7585 171.729 35.9455C171.726 35.5156 171.725 35.0857 171.724 34.6557C171.724 34.25 171.722 33.8442 171.719 33.4385C171.719 33.2906 171.718 33.1427 171.718 32.9948C171.719 31.7706 171.649 30.5321 171.083 29.4361C171.053 29.3739 171.022 29.3118 170.991 29.2478C170.791 28.8495 170.571 28.4788 170.298 28.1315C170.19 27.9843 170.19 27.9843 170.11 27.7904C169.991 27.5649 169.884 27.5291 169.665 27.4245C169.55 27.3276 169.437 27.2282 169.325 27.1272C167.344 25.475 164.547 25.2085 162.128 25.5121C160.282 25.8012 158.692 26.5696 157.396 27.9843C157.343 28.0386 157.29 28.093 157.235 28.149C156.497 28.9677 156.072 30.1944 156.028 31.3098C156.025 31.3843 156.022 31.4588 156.018 31.5355C155.967 32.8704 155.973 34.208 155.967 35.5438C155.965 35.9548 155.963 36.3658 155.96 36.7767C155.956 37.5521 155.952 38.3275 155.948 39.1029C155.943 40.1527 155.937 41.2025 155.931 42.2523C155.922 43.9021 155.914 45.552 155.906 47.2018C153.014 47.2018 150.122 47.2018 147.142 47.2018C147.113 37.2274 147.084 27.2529 147.055 16.9762C150.004 16.9762 152.954 16.9762 155.993 16.9762C156.022 18.4231 156.051 19.87 156.081 21.3607C156.255 21.0529 156.428 20.745 156.607 20.4279C158.234 18.1257 161.209 16.939 163.783 16.4572C163.918 16.437 163.918 16.437 164.056 16.4164C164.158 16.3996 164.26 16.3828 164.365 16.3654C168.235 15.8681 172.907 16.7633 175.976 19.4465Z" fill="#04151F"/>
<path d="M100.609 16.9766C103.501 16.9766 106.393 16.9766 109.373 16.9766C109.373 26.951 109.373 36.9255 109.373 47.2022C106.481 47.2022 103.589 47.2022 100.609 47.2022C100.609 37.2278 100.609 27.2533 100.609 16.9766Z" fill="#04151F"/>
<path d="M108.404 1.31699C109.624 2.34254 110.578 3.73908 110.8 5.4131C110.989 7.17161 110.681 8.9366 109.636 10.3562C108.647 11.5817 107.413 12.4925 105.868 12.6884C104.051 12.794 102.486 12.4969 101.068 11.2027C99.8368 9.98569 99.1475 8.43387 99.0788 6.64615C99.0572 4.97194 99.5855 3.36951 100.681 2.15209C102.76 -0.0660961 105.96 -0.547474 108.404 1.31699Z" fill="#04151F"/>
</svg>
